<svg width="50" height="50" xmlns="http://www.w3.org/2000/svg" fill="none">

 <g>
  <title>Layer 1</title>
  <path fill-rule="nonzero" fill="#00bf5f" d="m48.8354,10.0479c-0.5122,-0.25591 -0.7329,0.2319 -1.0322,0.4799c-0.1025,0.0801 -0.1889,0.1841 -0.2759,0.2798c-0.748,0.8164 -1.6225,1.3521 -2.7651,1.2881c-1.6699,-0.0957 -3.0962,0.4399 -4.3564,1.7441c-0.2681,-1.6079 -1.1582,-2.5678 -2.5132,-3.184c-0.709,-0.3199 -1.4258,-0.6402 -1.9224,-1.33598c-0.3467,-0.49609 -0.4409,-1.04785 -0.6142,-1.59228c-0.1104,-0.32764 -0.2207,-0.66358 -0.5909,-0.71973c-0.4018,-0.06396 -0.5595,0.27979 -0.7172,0.56787c-0.6299,1.17627 -0.8746,2.47222 -0.8506,3.78422c0.0551,2.9521 1.2763,5.3042 3.7026,6.976c0.2759,0.1919 0.3467,0.3838 0.2598,0.6641c-0.1651,0.5757 -0.3623,1.1357 -0.5357,1.7119c-0.1103,0.3682 -0.2754,0.4478 -0.6616,0.2881c-1.3315,-0.5679 -2.4814,-1.4082 -3.498,-2.4243c-1.7251,-1.7036 -3.2852,-3.584 -5.231,-5.0557c-0.457,-0.3442 -0.9141,-0.664 -1.3867,-0.9682c-1.9849,-1.9678 0.2602,-3.58403 0.7803,-3.77592c0.5434,-0.2002 0.1889,-0.88818 -1.5679,-0.87988c-1.7569,0.00781 -3.3638,0.60791 -5.4121,1.40771c-0.2993,0.12012 -0.6148,0.20801 -0.9375,0.28027c-1.8594,-0.36035 -3.7896,-0.44043 -5.8062,-0.208c-3.79734,0.43164 -6.83055,2.26362 -9.06004,5.39212c-2.67871,3.7597 -3.30908,8.0317 -2.53662,12.4878c0.81104,4.6962 3.15918,8.5839 6.76709,11.624c3.74217,3.1523 8.05177,4.6963 12.96727,4.4004c2.9859,-0.1763 6.3106,-0.584 10.0606,-3.8242c0.9453,0.4799 1.938,0.6718 3.5844,0.8159c1.2686,0.1201 2.4898,-0.064 3.4351,-0.2642c1.481,-0.3198 1.3784,-1.7197 0.8428,-1.9756c-4.3409,-2.0644 -3.3877,-1.2241 -4.2539,-1.9043c2.2055,-2.664 5.5302,-5.4321 6.83,-14.3999c0.1026,-0.7119 0.0157,-1.1601 0,-1.7363c-0.0078,-0.3521 0.0708,-0.4878 0.4649,-0.5278c1.0874,-0.128 2.143,-0.4322 3.1118,-0.9761c2.8125,-1.5679 3.9473,-4.144 4.2148,-7.2319c0.0396,-0.4722 -0.0078,-0.96 -0.4961,-1.208zm-24.5092,27.7919c-4.2066,-3.3759 -6.2471,-4.4877 -7.0904,-4.4399c-0.7876,0.0483 -0.646,0.9683 -0.4726,1.5679c0.1811,0.5923 0.418,1.0005 0.7485,1.52c0.2285,0.3442 0.3862,0.8564 -0.2285,1.2402c-1.355,0.856 -3.7104,-0.2881 -3.8208,-0.3442c-2.7417,-1.648 -5.03418,-3.8237 -6.64892,-6.7998c-1.56006,-2.8643 -2.46582,-5.9361 -2.61573,-9.2163c-0.03955,-0.792 0.18897,-1.0718 0.96094,-1.2158c1.0166,-0.1919 2.06445,-0.232 3.08057,-0.0801c4.29344,0.6401 7.94924,2.6001 11.01364,5.7041c1.7491,1.768 3.0723,3.8799 4.4356,5.9443c1.4492,2.1919 3.0093,4.2798 4.9946,5.9917c0.7012,0.6001 1.2603,1.0562 1.7959,1.3921c-1.6147,0.1841 -4.3091,0.2241 -6.1528,-1.2642zm2.0171,-13.2397c0,-0.3521 0.2758,-0.6323 0.6225,-0.6323c0.0786,0 0.1494,0.0161 0.2124,0.04c0.0869,0.0322 0.1656,0.0801 0.2285,0.1524c0.1104,0.1118 0.1734,0.2719 0.1734,0.4399c0,0.352 -0.2759,0.6318 -0.6226,0.6318c-0.3467,0 -0.6142,-0.2798 -0.6142,-0.6318zm6.2631,3.2798c-0.4018,0.168 -0.8037,0.312 -1.1899,0.3281c-0.5986,0.0317 -1.2524,-0.2158 -1.6069,-0.52c-0.5513,-0.4722 -0.9453,-0.7359 -1.1109,-1.5601c-0.0708,-0.352 -0.0312,-0.896 0.0318,-1.208c0.1416,-0.6719 -0.0161,-1.104 -0.481,-1.4961c-0.3779,-0.3198 -0.8584,-0.4077 -1.3862,-0.4077c-0.1973,0 -0.3784,-0.0884 -0.5122,-0.1601c-0.2207,-0.1119 -0.4019,-0.3921 -0.2285,-0.7359c0.0551,-0.1123 0.3232,-0.3843 0.3862,-0.4321c0.7168,-0.416 1.5439,-0.2803 2.3081,0.0317c0.709,0.2964 1.2446,0.8404 2.0171,1.6084c0.7876,0.9278 0.9292,1.1836 1.3784,1.8799c0.3545,0.544 0.6777,1.104 0.898,1.7441c0.1342,0.4 -0.0391,0.7281 -0.504,0.9278z" id="path"/>
 </g>
</svg>