<svg width="240" height="240" xmlns="http://www.w3.org/2000/svg" fill="none">
 <g>
  <title>Layer 1</title>
  <g>
   <g>
    <title fill="#aaffd4">Layer 1</title>
    <path id="svg_1" d="m235.20296,46.4401c-2.49351,-1.24583 -3.56793,1.12894 -5.02499,2.33627c-0.49899,0.38995 -0.91961,0.89624 -1.34315,1.36213c-3.64144,3.97443 -7.89871,6.58234 -13.46116,6.27077c-8.12947,-0.46589 -15.07303,2.14154 -21.20798,8.49069c-1.30517,-7.82764 -5.63839,-12.50066 -12.23485,-15.50046c-3.45158,-1.55735 -6.94113,-3.11664 -9.3587,-6.50387c-1.68782,-2.41508 -2.14641,-5.10118 -2.99007,-7.75159c-0.53745,-1.59503 -1.07442,-3.23046 -2.87664,-3.50382c-1.95606,-0.31137 -2.72378,1.36208 -3.4915,2.76452c-3.0665,5.72636 -4.25776,12.03535 -4.14092,18.42247c0.26824,14.37152 6.21333,25.8221 18.02513,33.96081c1.34315,0.93421 1.68782,1.86843 1.26477,3.233c-0.80375,2.80264 -1.76376,5.52886 -2.60791,8.33393c-0.53697,1.79248 -1.34071,2.18 -3.22082,1.40254c-6.48206,-2.76467 -12.08004,-6.85545 -17.02909,-11.80206c-8.39819,-8.29353 -15.99313,-17.44776 -25.46574,-24.61234c-2.22478,-1.67565 -4.45005,-3.23251 -6.75078,-4.71343c-9.66296,-9.57971 1.26671,-17.4479 3.79868,-18.38207c2.6454,-0.97462 0.91961,-4.32387 -7.63291,-4.28346c-8.553,0.03802 -16.37577,2.95945 -26.34738,6.85306c-1.45706,0.58477 -2.99299,1.01264 -4.56397,1.36442c-9.052,-1.75427 -18.44867,-2.14412 -28.26595,-1.01259c-18.48635,2.10133 -33.25273,11.01984 -44.10641,26.25011c-13.04059,18.30311 -16.10938,39.10021 -12.34886,60.79355c3.94833,22.86221 15.37963,41.78845 32.94379,56.58837c18.21777,15.34614 39.19791,22.86269 63.12773,21.42218c14.53606,-0.85827 30.72149,-2.84305 48.97737,-18.61711c4.60194,2.33627 9.43464,3.27048 17.4497,3.97199c6.17584,0.58468 12.12093,-0.31157 16.72288,-1.28619c7.20986,-1.55686 6.71038,-8.3719 4.10295,-9.61769c-21.13252,-10.04999 -16.49212,-5.95921 -20.70899,-9.27058c10.73689,-12.96898 26.92232,-26.44474 33.25005,-70.10211c0.49948,-3.4657 0.07643,-5.64764 0,-8.45272c-0.03797,-1.71411 0.34467,-2.37473 2.26324,-2.56945c5.29372,-0.62313 10.43263,-2.10405 15.14898,-4.75188c13.69191,-7.63291 19.21639,-20.17397 20.51864,-35.20659c0.19278,-2.29878 -0.03797,-4.67351 -2.41513,-5.88083l-0.00001,0.00003zm-119.31656,135.29752c-20.47872,-16.43468 -30.41235,-21.84718 -34.51774,-21.61448c-3.83422,0.23514 -3.14488,4.71391 -2.30073,7.63291c0.88164,2.88346 2.03492,4.87067 3.64387,7.39972c1.11239,1.67565 1.88011,4.16916 -1.11239,6.03759c-6.59646,4.16721 -18.0631,-1.40254 -18.60055,-1.67565c-13.34724,-8.02285 -24.50757,-18.61467 -32.36851,-33.10303c-7.59474,-13.94409 -12.00419,-28.89833 -12.73399,-44.86712c-0.19254,-3.85564 0.91995,-5.21777 4.67808,-5.9188c4.94905,-0.93421 10.05023,-1.12943 14.99694,-0.38995c20.90148,3.11616 38.69877,12.6579 53.61699,27.7689c8.51503,8.60704 14.95668,18.88827 21.59355,28.93825c7.05505,10.67069 14.64998,20.83507 24.31489,29.16901c3.41361,2.92143 6.13544,5.14183 8.74286,6.77707c-7.86074,0.89624 -20.97771,1.09097 -29.95328,-6.15442l0.00001,0zm9.81972,-64.45398c0,-1.71411 1.34266,-3.07819 3.03048,-3.07819c0.38264,0 0.72731,0.07838 1.03401,0.19473c0.42305,0.15676 0.80618,0.38995 1.11239,0.74192c0.53745,0.54427 0.84415,1.32367 0.84415,2.14154c0,1.71362 -1.34315,3.07575 -3.03096,3.07575c-1.68782,0 -2.99007,-1.36213 -2.99007,-3.07575zm30.49025,15.96684c-1.95606,0.81786 -3.9126,1.51889 -5.79271,1.59727c-2.91413,0.15432 -6.09698,-1.05057 -7.82277,-2.53148c-2.68386,-2.29878 -4.60194,-3.58253 -5.40812,-7.59493c-0.34467,-1.71362 -0.15189,-4.36194 0.15481,-5.88083c0.68934,-3.27097 -0.07838,-5.37453 -2.34162,-7.28337c-1.83971,-1.55686 -4.17889,-1.98478 -6.74835,-1.98478c-0.9605,0 -1.84214,-0.43035 -2.49351,-0.7794c-1.07442,-0.54476 -1.95654,-1.90884 -1.11239,-3.58253c0.26824,-0.5467 1.57341,-1.87086 1.88011,-2.10356c3.48955,-2.02519 7.51607,-1.36457 11.23637,0.15432c3.45158,1.44295 6.05901,4.09127 9.81972,7.83007c3.83422,4.51675 4.52356,5.76204 6.71038,9.1518c1.72579,2.64832 3.2992,5.37453 4.37168,8.49069c0.65332,1.94729 -0.19035,3.54456 -2.45359,4.51675l-0.00001,-0.00002z" fill="#aaffd4" fill-rule="nonzero"/>
   </g>
  </g>
 </g>

</svg>